<svg width="33" height="33" viewBox="0 0 33 33" fill="none" xmlns="http://www.w3.org/2000/svg">
<g clip-path="url(#clip0_1039_422)">
<path d="M30.596 -0.00012207H2.92224C1.59659 -0.00012207 0.524658 1.04644 0.524658 2.34038V30.1283C0.524658 31.4222 1.59659 32.4751 2.92224 32.4751H30.596C31.9216 32.4751 32.9999 31.4222 32.9999 30.1346V2.34038C32.9999 1.04644 31.9216 -0.00012207 30.596 -0.00012207ZM10.1594 27.6736H5.33886V12.1718H10.1594V27.6736ZM7.74913 10.0596C6.20148 10.0596 4.95195 8.81006 4.95195 7.26875C4.95195 5.72745 6.20148 4.47791 7.74913 4.47791C9.29044 4.47791 10.54 5.72745 10.54 7.26875C10.54 8.80371 9.29044 10.0596 7.74913 10.0596ZM28.1984 27.6736H23.3842V20.1383C23.3842 18.3433 23.3525 16.0282 20.8788 16.0282C18.3734 16.0282 17.9928 17.9881 17.9928 20.0115V27.6736H13.1849V12.1718H17.8025V14.2903H17.8659C18.5066 13.0724 20.0796 11.7848 22.4201 11.7848C27.2977 11.7848 28.1984 14.9943 28.1984 19.1679V27.6736Z" fill="white"/>
</g>
<defs>
<clipPath id="clip0_1039_422">
<rect width="32.4752" height="32.4752" fill="white" transform="translate(0.524658 -0.00012207)"/>
</clipPath>
</defs>
</svg>
