<svg width="279" height="67" viewBox="0 0 279 67" fill="none" xmlns="http://www.w3.org/2000/svg">
<path d="M90.984 51V17.4H97.416L111.72 41.112H108.312L122.376 17.4H128.76L128.856 51H121.56L121.512 28.584H122.856L111.624 47.448H108.12L96.648 28.584H98.28V51H90.984ZM148.012 51.24C145.868 51.24 143.996 50.84 142.396 50.04C140.796 49.24 139.548 48.04 138.652 46.44C137.788 44.84 137.356 42.84 137.356 40.44V25.8H140.764V40.056C140.764 42.744 141.42 44.776 142.732 46.152C144.076 47.496 145.948 48.168 148.348 48.168C150.108 48.168 151.628 47.816 152.908 47.112C154.22 46.376 155.212 45.32 155.884 43.944C156.588 42.568 156.94 40.92 156.94 39V25.8H160.348V51H157.084V44.088L157.612 45.336C156.812 47.192 155.564 48.648 153.868 49.704C152.204 50.728 150.252 51.24 148.012 51.24ZM201.334 25.56C203.382 25.56 205.158 25.96 206.662 26.76C208.198 27.528 209.382 28.712 210.214 30.312C211.078 31.912 211.51 33.928 211.51 36.36V51H208.102V36.696C208.102 34.04 207.462 32.04 206.182 30.696C204.934 29.32 203.158 28.632 200.854 28.632C199.126 28.632 197.622 29 196.342 29.736C195.094 30.44 194.118 31.48 193.414 32.856C192.742 34.2 192.406 35.832 192.406 37.752V51H188.998V36.696C188.998 34.04 188.358 32.04 187.078 30.696C185.798 29.32 184.006 28.632 181.702 28.632C180.006 28.632 178.518 29 177.238 29.736C175.958 30.44 174.966 31.48 174.262 32.856C173.59 34.2 173.254 35.832 173.254 37.752V51H169.846V25.8H173.11V32.616L172.582 31.416C173.35 29.592 174.582 28.168 176.278 27.144C178.006 26.088 180.038 25.56 182.374 25.56C184.838 25.56 186.934 26.184 188.662 27.432C190.39 28.648 191.51 30.488 192.022 32.952L190.678 32.424C191.414 30.376 192.71 28.728 194.566 27.48C196.454 26.2 198.71 25.56 201.334 25.56ZM236.544 51V45.432L236.4 44.52V35.208C236.4 33.064 235.792 31.416 234.576 30.264C233.392 29.112 231.616 28.536 229.248 28.536C227.616 28.536 226.064 28.808 224.592 29.352C223.12 29.896 221.872 30.616 220.848 31.512L219.312 28.968C220.592 27.88 222.128 27.048 223.92 26.472C225.712 25.864 227.6 25.56 229.584 25.56C232.848 25.56 235.36 26.376 237.12 28.008C238.912 29.608 239.808 32.056 239.808 35.352V51H236.544ZM227.856 51.24C225.968 51.24 224.32 50.936 222.912 50.328C221.536 49.688 220.48 48.824 219.744 47.736C219.008 46.616 218.64 45.336 218.64 43.896C218.64 42.584 218.944 41.4 219.552 40.344C220.192 39.256 221.216 38.392 222.624 37.752C224.064 37.08 225.984 36.744 228.384 36.744H237.072V39.288H228.48C226.048 39.288 224.352 39.72 223.392 40.584C222.464 41.448 222 42.52 222 43.8C222 45.24 222.56 46.392 223.68 47.256C224.8 48.12 226.368 48.552 228.384 48.552C230.304 48.552 231.952 48.12 233.328 47.256C234.736 46.36 235.76 45.08 236.4 43.416L237.168 45.768C236.528 47.432 235.408 48.76 233.808 49.752C232.24 50.744 230.256 51.24 227.856 51.24ZM249.065 51V25.8H252.473V51H249.065ZM250.793 20.232C250.089 20.232 249.497 19.992 249.017 19.512C248.537 19.032 248.297 18.456 248.297 17.784C248.297 17.112 248.537 16.552 249.017 16.104C249.497 15.624 250.089 15.384 250.793 15.384C251.497 15.384 252.089 15.608 252.569 16.056C253.049 16.504 253.289 17.064 253.289 17.736C253.289 18.44 253.049 19.032 252.569 19.512C252.121 19.992 251.529 20.232 250.793 20.232ZM261.955 51V25.8H265.219V32.664L264.883 31.464C265.587 29.544 266.771 28.088 268.435 27.096C270.099 26.072 272.163 25.56 274.627 25.56V28.872C274.499 28.872 274.371 28.872 274.243 28.872C274.115 28.84 273.987 28.824 273.859 28.824C271.203 28.824 269.123 29.64 267.619 31.272C266.115 32.872 265.363 35.16 265.363 38.136V51H261.955Z" fill="#FBFBFB"/>
<path fill-rule="evenodd" clip-rule="evenodd" d="M33.5 67C52.0015 67 67 52.0015 67 33.5C67 31.2865 66.7853 29.1232 66.3756 27.0296C66.2738 27.2142 66.1722 27.399 66.0709 27.584C62.3989 34.28 58.7749 41 55.9669 48.128C55.4629 49.424 54.9589 50.72 54.6229 52.064C54.5509 52.352 54.5029 52.616 54.4789 52.904C54.4549 53.432 54.3109 53.552 53.7829 53.408C52.8229 53.144 52.0069 52.112 51.8869 50.984C51.7669 49.76 52.0069 48.584 52.3189 47.408C53.6869 42.128 55.8229 37.136 58.2229 32.264C58.9601 30.7343 59.7538 29.233 60.5499 27.7273C60.7905 27.2723 61.0313 26.8168 61.2709 26.36C61.3669 26.168 61.4629 25.976 61.4869 25.712C61.3429 25.856 61.1989 26 61.0789 26.144L61.0778 26.1452C56.7582 31.2808 52.4385 36.4164 48.1189 41.528C46.9189 42.944 45.6709 44.288 44.3269 45.56C43.4629 46.376 42.5749 47.192 41.2309 46.64C39.6949 46.04 38.5189 45.08 38.2549 43.328C37.9909 41.648 38.2789 39.992 38.7109 38.384C39.9349 33.896 41.9029 29.72 44.0389 25.616C45.5029 22.808 47.1109 20.072 49.1029 17.6C50.2549 16.184 50.9269 16.064 52.4869 17.024C52.5522 17.0697 52.6176 17.1137 52.6824 17.1573C52.8558 17.274 53.0257 17.3883 53.1829 17.528C54.0949 18.32 54.2149 18.824 53.6389 19.88C53.0591 20.9465 52.4708 22.0065 51.8829 23.0659C50.4995 25.5588 49.1181 28.0479 47.8549 30.608C46.0789 34.28 44.4229 38.024 43.1269 41.888C43.0638 42.0562 43.0191 42.2244 42.9445 42.5055C42.9339 42.5453 42.9228 42.5874 42.9109 42.632C43.9909 41.864 44.8789 41.096 45.7189 40.304C49.2134 36.9173 52.4171 33.298 55.6262 29.6726C55.9875 29.2644 56.349 28.8561 56.7109 28.448C58.5794 26.3396 60.3749 24.1713 62.1707 22.0028C62.7966 21.2469 63.4226 20.4911 64.0516 19.7377C58.8011 8.09998 47.0965 0 33.5 0C14.9985 0 0 14.9985 0 33.5C0 34.1419 0.018056 34.7797 0.053688 35.4127C2.46602 29.918 5.01924 24.4924 7.728 19.136C8.088 18.44 8.472 17.792 8.928 17.168C9.336 16.616 9.816 16.496 10.464 16.688C11.064 16.88 11.592 17.216 12.072 17.624C12.696 18.152 12.912 18.776 12.624 19.592C11.7184 22.4447 10.5138 25.1693 9.31233 27.8865C9.24019 28.0497 9.16805 28.2129 9.096 28.376C8.472 29.792 7.848 31.208 7.344 32.672C7.576 32.384 7.80534 32.0933 8.03467 31.8027C8.49334 31.2213 8.952 30.64 9.432 30.08C12.936 25.904 16.632 21.896 20.52 18.056C20.7672 17.8265 21.0273 17.623 21.2909 17.4168C21.3856 17.3426 21.4808 17.2682 21.576 17.192C22.632 16.352 23.712 16.376 24.84 17C26.712 18.008 27.24 19.16 26.832 21.224C26.5156 22.7608 25.9012 24.1912 25.2896 25.6154C25.2517 25.7036 25.2138 25.7918 25.176 25.88C24.2949 27.9066 23.3329 29.8726 22.3642 31.8521C22.2775 32.0293 22.1908 32.2066 22.104 32.384C22.0893 32.4098 22.0729 32.4361 22.0559 32.4633C21.9621 32.6137 21.851 32.7919 21.912 33.056C22.0244 32.9232 22.1324 32.7991 22.236 32.68C22.3759 32.5193 22.5079 32.3676 22.632 32.216C23.3179 31.4327 24.0012 30.6468 24.6845 29.8607C27.5397 26.5764 30.3963 23.2904 33.456 20.192C34.656 18.992 35.904 17.864 37.272 16.88C38.376 16.088 39.408 16.064 40.512 16.784C41.664 17.528 42.312 18.464 42.072 19.904C41.64 22.52 40.608 24.92 39.36 27.224C38.1201 29.5087 36.7994 31.753 35.4775 33.9992C34.5222 35.6225 33.5663 37.2468 32.64 38.888C30.288 43.04 27.96 47.192 26.04 51.56C25.4367 52.9027 24.9755 54.2928 24.5155 55.6791C24.4082 56.0025 24.301 56.3257 24.192 56.648C24 57.152 23.952 57.68 23.976 58.208C23.976 58.976 23.688 59.168 22.968 58.904C21.576 58.376 20.712 56.744 21.12 55.184C21.936 52.016 22.944 48.896 24.216 45.872C27.048 39.104 30.408 32.624 34.104 26.288C34.872 24.944 35.592 23.576 36.168 22.136C34.752 23.312 33.456 24.608 32.208 25.928C28.1643 30.3025 24.3177 34.846 20.4741 39.3859C19.299 40.7739 18.1241 42.1616 16.944 43.544C16.6971 43.849 16.5293 44.1979 16.3609 44.5482C16.2509 44.7768 16.1407 45.006 16.008 45.224C15.816 45.56 15.612 45.896 15.408 46.232C15.204 46.568 15 46.904 14.808 47.24C14.52 47.768 14.112 47.864 13.584 47.648C12.072 47 11.832 46.304 12.024 45.128C12.384 43.208 13.152 41.432 13.92 39.68C15.3862 36.32 16.9884 33.028 18.5907 29.7361C19.5062 27.855 20.4218 25.9738 21.312 24.08C21.672 23.336 21.984 22.544 22.248 21.704C22.1483 21.7954 22.0485 21.884 21.9498 21.9716C21.7634 22.1371 21.5806 22.2994 21.408 22.472C16.224 27.44 11.616 32.912 7.464 38.768C5.80169 41.0952 4.06888 43.352 2.21909 45.515C7.04885 58.0813 19.2329 67 33.5 67Z" fill="#FD6F00"/>
</svg>
