<svg width="33" height="33" viewBox="0 0 33 33" fill="none" xmlns="http://www.w3.org/2000/svg">
<g clip-path="url(#clip0_1039_424)">
<path d="M10.7247 29.4304C22.9765 29.4304 29.6796 19.2774 29.6796 10.4755C29.6796 10.1901 29.6732 9.8983 29.6605 9.61287C30.9645 8.66987 32.0898 7.50184 32.9835 6.16365C31.7691 6.70395 30.4798 7.05683 29.1595 7.21021C30.5496 6.37691 31.5905 5.06784 32.0892 3.52567C30.7814 4.30073 29.3512 4.84747 27.8598 5.14245C26.855 4.07476 25.5264 3.36782 24.0795 3.13093C22.6326 2.89405 21.1479 3.14041 19.8551 3.83192C18.5622 4.52343 17.5332 5.62159 16.927 6.9566C16.3209 8.29161 16.1714 9.78912 16.5017 11.2176C13.8536 11.0847 11.2629 10.3968 8.89771 9.19846C6.5325 8.00011 4.44551 6.31809 2.77205 4.26143C1.92151 5.72786 1.66125 7.46313 2.04415 9.11455C2.42705 10.766 3.42439 12.2097 4.83347 13.1522C3.77562 13.1186 2.74094 12.8338 1.81492 12.3213V12.4037C1.81397 13.9426 2.34599 15.4344 3.32053 16.6254C4.29508 17.8164 5.65201 18.6331 7.16065 18.9368C6.18072 19.2049 5.15224 19.244 4.15479 19.051C4.5805 20.3745 5.40878 21.532 6.52403 22.3621C7.63928 23.1921 8.98586 23.6533 10.3758 23.6812C8.01607 25.5349 5.10108 26.5403 2.10035 26.5355C1.56819 26.5347 1.03656 26.5021 0.508301 26.4378C3.55672 28.3936 7.10285 29.4323 10.7247 29.4304Z" fill="white"/>
</g>
<defs>
<clipPath id="clip0_1039_424">
<rect width="32.4752" height="32.4752" fill="white" transform="translate(0.508301 -0.00012207)"/>
</clipPath>
</defs>
</svg>
