<svg width="71" height="72" viewBox="0 0 71 72" fill="none" xmlns="http://www.w3.org/2000/svg">
<path d="M27.3047 60.4491H67.4609V44.0702H27.3047V60.4491ZM3.51465 34.1766H43.6738V17.7987H3.51465V34.1766ZM49.0674 7.94031H56.5488V3.87488H49.0674V7.94031ZM14.4688 7.92566H45.7432V3.86414H14.4688V7.92566ZM70.7529 62.5624L70.7285 62.6132C70.523 63.0437 70.2381 63.3384 69.877 63.5194C69.6105 63.653 69.3141 63.7196 68.9971 63.7421L68.6738 63.7509C65.9051 63.7162 63.1377 63.7382 60.3643 63.7382H59.8135C59.8109 65.5383 59.7838 67.262 59.8291 68.9862V68.9872C59.8407 69.4331 59.7785 69.8396 59.6006 70.1952C59.4209 70.5544 59.1327 70.842 58.7275 71.0643L58.6709 71.0956H12.3301L12.2744 71.0653C11.8643 70.8419 11.5812 70.551 11.4053 70.1903C11.2317 69.8345 11.1709 69.4285 11.1719 68.9872C11.1938 58.67 11.1865 48.3528 11.1865 38.035V37.4628C8.12628 37.4629 5.15621 37.4645 2.18848 37.4628V37.4618C1.55924 37.4617 1.05448 37.3372 0.713867 36.9921C0.374008 36.6477 0.251018 36.1388 0.250977 35.5048C0.24915 29.15 0.24915 22.795 0.250977 16.4403L0.257812 16.2157C0.286422 15.7055 0.418544 15.2893 0.713867 14.995C1.05117 14.6589 1.54811 14.534 2.16309 14.5331H11.1865V13.9813C11.1865 10.2207 11.2066 6.46617 11.1719 2.70886C11.168 2.26668 11.2281 1.85933 11.4023 1.50281C11.5789 1.1417 11.8634 0.851091 12.2744 0.628784L12.3301 0.598511H58.3555V0.420776L58.7246 0.621948C59.1349 0.845375 59.4186 1.13672 59.5947 1.49792C59.7685 1.85423 59.8291 2.26043 59.8271 2.70203C59.7998 8.26106 59.8125 13.8182 59.8125 19.3788C59.8125 19.5435 59.8214 19.7517 59.8018 19.9481C59.7213 20.8127 59.0624 21.454 58.2119 21.4628C57.389 21.4709 56.7168 20.8934 56.6025 20.0673L56.5879 19.8983C56.5565 19.164 56.5762 18.4199 56.5762 17.7001V11.2655H14.4717V14.5282H44.8359C45.572 14.5282 46.1357 14.6255 46.499 14.9852C46.8629 15.3458 46.9609 15.9057 46.9609 16.6356V35.3641C46.9609 36.0778 46.8559 36.6299 46.499 36.9911C46.1412 37.3532 45.5927 37.4608 44.8848 37.4608H14.4717V67.8173H56.5439V63.7343H26.2441C25.4547 63.7343 24.8634 63.6495 24.4932 63.2733C24.1244 62.8985 24.041 62.3015 24.041 61.5009V42.8417C24.041 42.1567 24.1555 41.6199 24.5146 41.2655C24.873 40.9122 25.4152 40.7997 26.1084 40.7997H56.5801V40.3026C56.5801 37.6598 56.5766 35.0156 56.582 32.3739C56.5821 31.9315 56.6767 31.5465 56.8799 31.2401C57.0852 30.9307 57.388 30.7223 57.7637 30.6112L57.9619 30.5643C58.4226 30.4862 58.8607 30.6152 59.1953 30.8983C59.5753 31.2199 59.8074 31.7271 59.8105 32.3202C59.8215 34.9641 59.8145 37.6094 59.8145 40.2499V40.8016H61.5244C63.8969 40.8016 66.2628 40.827 68.6289 40.787C69.0705 40.7793 69.477 40.8409 69.835 41.0145C70.1966 41.1901 70.4914 41.4716 70.7207 41.8739L70.7529 41.9315V62.5624Z" fill="#FD6F00" stroke="#FD6F00" stroke-width="0.5"/>
</svg>
