<svg width="83" height="71" viewBox="0 0 83 71" fill="none" xmlns="http://www.w3.org/2000/svg">
<mask id="path-1-outside-1_1039_287" maskUnits="userSpaceOnUse" x="-0.5" y="-0.5" width="84" height="72" fill="black">
<rect fill="white" x="-0.5" y="-0.5" width="84" height="72"/>
<path d="M82.5008 7.32165V63.6784C82.458 63.7802 82.3939 63.8753 82.3725 63.9816C81.5487 68.033 78.7203 70.4728 74.8028 70.4977C73.3885 70.5068 71.9743 70.4977 70.5579 70.4977C49.8194 70.4977 29.0808 70.5 8.34011 70.4977C3.76792 70.4977 0.509398 67.1661 0.505118 62.4471C0.49656 44.4786 0.49656 26.5146 0.522235 8.55063C0.522235 7.63399 0.672003 6.68113 0.943724 5.81202C1.98782 2.47135 4.77564 0.5 8.34439 0.5C30.4437 0.5 52.5451 0.5 74.6444 0.5C74.8584 0.5 75.0724 0.5 75.2842 0.509053C78.2346 0.669749 80.3891 2.16354 81.7178 4.93611C82.0729 5.67848 82.2441 6.52044 82.4987 7.31712L82.5008 7.32165ZM15.1417 67.062C15.1417 63.6919 15.1417 60.4124 15.1417 57.1328C15.1417 54.5594 15.1246 51.9838 15.1481 49.4104C15.1717 46.8958 16.6629 45.3409 19.0164 45.3341C20.7516 45.3296 22.4867 45.3319 24.2198 45.3341C26.7894 45.3364 28.225 46.8574 28.2271 49.5914C28.2314 55.08 28.2271 60.5663 28.2271 66.0548C28.2271 66.383 28.2271 66.7112 28.2271 67.0575H33.0218C33.0218 66.7067 33.0218 66.4034 33.0218 66.1001C33.0218 63.2144 33.0176 60.3286 33.0261 57.4452C33.0261 57.0242 33.0539 56.5964 33.1181 56.1822C33.3385 54.7496 34.1815 53.7673 35.3047 52.9955C33.9333 49.5009 32.5832 46.0607 31.2332 42.6227C29.9987 39.4789 30.4287 37.4125 32.7351 35.0632C35.6107 32.1344 38.3172 29.0586 40.1016 25.2087C40.3819 24.6044 40.8611 24.2807 41.5158 24.2807C42.2026 24.2807 42.6583 24.6315 42.9878 25.254C43.5377 26.286 43.9998 27.4064 44.708 28.3004C46.6421 30.7425 48.6383 33.1371 50.7009 35.4593C52.3975 37.3695 52.9217 39.6374 51.9931 42.0795C51.516 43.3356 51.0154 44.585 50.5276 45.8366C49.5969 48.2335 48.6683 50.6303 47.7269 53.0498C49.4728 54.1498 50.0333 55.7929 49.9927 57.8164C49.9349 60.5867 49.9777 63.3592 49.9777 66.1318V67.0371H54.4643C54.4643 66.6614 54.4643 66.3536 54.4643 66.0435C54.4643 61.9695 54.4215 57.8956 54.4985 53.8239C54.5157 52.9774 54.781 51.9634 55.2816 51.341C55.8892 50.585 56.0198 49.8653 55.9919 48.9758C55.9384 47.1901 56.6766 45.8932 58.1743 45.0535C58.3882 44.9335 58.5958 44.5714 58.6065 44.3134C58.6535 43.184 58.6172 42.0523 58.63 40.9207C58.6428 39.798 59.259 39.0783 60.1919 39.0602C61.1525 39.0421 61.8093 39.7845 61.8265 40.941C61.8436 42.0433 61.8521 43.1478 61.82 44.25C61.8072 44.7095 61.9377 44.9471 62.3442 45.1418C63.3734 45.6352 64.0773 46.4952 64.3126 47.6631C64.4602 48.3987 64.3854 49.1818 64.4538 49.94C64.4795 50.2229 64.5544 50.5783 64.7341 50.7525C65.6734 51.6624 66.0071 52.7827 66.0007 54.0977C65.9793 58.1151 65.9943 62.1302 65.9943 66.1476C65.9943 66.4487 65.9943 66.7474 65.9943 67.1073C68.9533 67.1073 71.8031 67.1118 74.6551 67.1073C77.5628 67.1028 79.2958 65.2763 79.2958 62.2117C79.2979 49.5394 79.2958 36.8671 79.2958 24.1924C79.2958 23.8937 79.2958 23.5972 79.2958 23.3007H3.70587C3.70587 23.6447 3.70587 23.948 3.70587 24.2513C3.70587 36.8671 3.70587 49.4828 3.70587 62.1008C3.70587 62.3837 3.69945 62.6667 3.71871 62.9496C3.8535 64.9956 5.39183 66.924 7.28532 67.0281C9.86132 67.1707 12.448 67.0643 15.1417 67.0643V67.062ZM3.71657 19.7948H79.2851C79.2851 15.8272 79.2851 11.923 79.283 8.02102C79.283 7.88069 79.2551 7.74037 79.2295 7.6023C78.7973 5.26882 77.1113 3.89498 74.6509 3.89498C52.5494 3.89498 30.4501 3.89498 8.34867 3.89498C8.13472 3.89498 7.92076 3.89498 7.70895 3.9063C5.61862 4.00815 3.78289 5.8007 3.73796 8.02328C3.66094 11.923 3.71657 15.8272 3.71657 19.7971V19.7948ZM39.9005 52.4478C39.9005 49.7069 39.894 46.9954 39.9047 44.2862C39.909 43.1206 40.5552 42.3986 41.5329 42.4167C42.4743 42.4326 43.0905 43.141 43.0991 44.2681C43.1119 46.3028 43.1033 48.3398 43.1033 50.3746C43.1033 51.0739 43.1033 51.7755 43.1033 52.5949C43.7024 52.3957 44.3357 52.9095 44.6759 52.02C46.1158 48.2538 47.5921 44.5012 49.047 40.7419C49.4685 39.6532 49.2545 38.7026 48.4501 37.8901C47.774 37.2066 47.0743 36.5457 46.4581 35.8056C44.7701 33.7776 43.1226 31.7135 41.4388 29.6403C41.4302 29.6516 41.334 29.7421 41.2633 29.853C39.3977 32.7704 37.1469 35.3303 34.7335 37.7407C33.6744 38.7977 33.5118 39.5876 34.0659 41.0021C35.4459 44.5216 36.8645 48.023 38.1888 51.5651C38.5312 52.4794 38.9826 52.7442 39.9026 52.4523L39.9005 52.4478ZM46.7791 67.0779V66.245C46.7791 63.3343 46.7791 60.426 46.7791 57.5153C46.7791 56.2501 46.5052 55.9468 45.3327 55.9446C42.7739 55.9378 40.215 55.9378 37.6561 55.9446C36.5157 55.9468 36.2269 56.2547 36.2247 57.4452C36.2205 60.4124 36.2226 63.3773 36.2247 66.3446C36.2247 66.5867 36.2547 66.8266 36.2718 67.0801H46.7769L46.7791 67.0779ZM25.0242 67.0665C25.0242 66.0684 25.0242 65.1676 25.0242 64.2646C25.0242 59.4029 25.0242 54.5391 25.0242 49.6775C25.0242 49.1773 25.0649 48.7065 24.3588 48.7155C22.5723 48.7404 20.7837 48.7042 18.9993 48.7495C18.7789 48.754 18.4109 49.0731 18.381 49.2859C18.2975 49.9128 18.351 50.5601 18.351 51.255C19.1084 51.255 19.746 51.2459 20.3836 51.255C21.494 51.2731 22.2129 51.9272 22.2257 52.9163C22.2407 53.937 21.4983 54.6251 20.3493 54.6432C19.7139 54.6522 19.0785 54.6432 18.4131 54.6432V56.7368C19.1747 56.7368 19.8658 56.7119 20.5569 56.7435C21.5389 56.7865 22.2172 57.4927 22.2257 58.4297C22.2343 59.3962 21.5261 60.1 20.4991 60.1249C19.8145 60.1408 19.1277 60.1272 18.4109 60.1272V62.2593C19.1148 62.2593 19.7503 62.2479 20.3879 62.2615C21.509 62.2864 22.2172 62.936 22.2279 63.9273C22.2407 64.9481 21.5068 65.6248 20.3472 65.6474C19.7139 65.6588 19.0785 65.6474 18.4045 65.6474V67.0575H25.0242V67.0665ZM62.7914 67.062C62.7914 62.6033 62.7871 58.2509 62.7978 53.8985C62.7978 53.378 62.5432 53.301 62.1388 53.3033C60.9107 53.3169 59.6826 53.3463 58.4567 53.292C57.7956 53.2626 57.6522 53.5228 57.6565 54.1724C57.68 58.2441 57.6672 62.3181 57.6715 66.3898C57.6715 66.6071 57.7036 66.8244 57.7228 67.062H62.7914ZM61.3258 49.8721C61.2124 49.2836 61.2659 48.4937 60.9749 48.3059C60.5834 48.0524 59.8046 48.0705 59.4216 48.3398C59.1413 48.5367 59.2312 49.3244 59.152 49.8721H61.3258Z"/>
</mask>
<path d="M82.5008 7.32165V63.6784C82.458 63.7802 82.3939 63.8753 82.3725 63.9816C81.5487 68.033 78.7203 70.4728 74.8028 70.4977C73.3885 70.5068 71.9743 70.4977 70.5579 70.4977C49.8194 70.4977 29.0808 70.5 8.34011 70.4977C3.76792 70.4977 0.509398 67.1661 0.505118 62.4471C0.49656 44.4786 0.49656 26.5146 0.522235 8.55063C0.522235 7.63399 0.672003 6.68113 0.943724 5.81202C1.98782 2.47135 4.77564 0.5 8.34439 0.5C30.4437 0.5 52.5451 0.5 74.6444 0.5C74.8584 0.5 75.0724 0.5 75.2842 0.509053C78.2346 0.669749 80.3891 2.16354 81.7178 4.93611C82.0729 5.67848 82.2441 6.52044 82.4987 7.31712L82.5008 7.32165ZM15.1417 67.062C15.1417 63.6919 15.1417 60.4124 15.1417 57.1328C15.1417 54.5594 15.1246 51.9838 15.1481 49.4104C15.1717 46.8958 16.6629 45.3409 19.0164 45.3341C20.7516 45.3296 22.4867 45.3319 24.2198 45.3341C26.7894 45.3364 28.225 46.8574 28.2271 49.5914C28.2314 55.08 28.2271 60.5663 28.2271 66.0548C28.2271 66.383 28.2271 66.7112 28.2271 67.0575H33.0218C33.0218 66.7067 33.0218 66.4034 33.0218 66.1001C33.0218 63.2144 33.0176 60.3286 33.0261 57.4452C33.0261 57.0242 33.0539 56.5964 33.1181 56.1822C33.3385 54.7496 34.1815 53.7673 35.3047 52.9955C33.9333 49.5009 32.5832 46.0607 31.2332 42.6227C29.9987 39.4789 30.4287 37.4125 32.7351 35.0632C35.6107 32.1344 38.3172 29.0586 40.1016 25.2087C40.3819 24.6044 40.8611 24.2807 41.5158 24.2807C42.2026 24.2807 42.6583 24.6315 42.9878 25.254C43.5377 26.286 43.9998 27.4064 44.708 28.3004C46.6421 30.7425 48.6383 33.1371 50.7009 35.4593C52.3975 37.3695 52.9217 39.6374 51.9931 42.0795C51.516 43.3356 51.0154 44.585 50.5276 45.8366C49.5969 48.2335 48.6683 50.6303 47.7269 53.0498C49.4728 54.1498 50.0333 55.7929 49.9927 57.8164C49.9349 60.5867 49.9777 63.3592 49.9777 66.1318V67.0371H54.4643C54.4643 66.6614 54.4643 66.3536 54.4643 66.0435C54.4643 61.9695 54.4215 57.8956 54.4985 53.8239C54.5157 52.9774 54.781 51.9634 55.2816 51.341C55.8892 50.585 56.0198 49.8653 55.9919 48.9758C55.9384 47.1901 56.6766 45.8932 58.1743 45.0535C58.3882 44.9335 58.5958 44.5714 58.6065 44.3134C58.6535 43.184 58.6172 42.0523 58.63 40.9207C58.6428 39.798 59.259 39.0783 60.1919 39.0602C61.1525 39.0421 61.8093 39.7845 61.8265 40.941C61.8436 42.0433 61.8521 43.1478 61.82 44.25C61.8072 44.7095 61.9377 44.9471 62.3442 45.1418C63.3734 45.6352 64.0773 46.4952 64.3126 47.6631C64.4602 48.3987 64.3854 49.1818 64.4538 49.94C64.4795 50.2229 64.5544 50.5783 64.7341 50.7525C65.6734 51.6624 66.0071 52.7827 66.0007 54.0977C65.9793 58.1151 65.9943 62.1302 65.9943 66.1476C65.9943 66.4487 65.9943 66.7474 65.9943 67.1073C68.9533 67.1073 71.8031 67.1118 74.6551 67.1073C77.5628 67.1028 79.2958 65.2763 79.2958 62.2117C79.2979 49.5394 79.2958 36.8671 79.2958 24.1924C79.2958 23.8937 79.2958 23.5972 79.2958 23.3007H3.70587C3.70587 23.6447 3.70587 23.948 3.70587 24.2513C3.70587 36.8671 3.70587 49.4828 3.70587 62.1008C3.70587 62.3837 3.69945 62.6667 3.71871 62.9496C3.8535 64.9956 5.39183 66.924 7.28532 67.0281C9.86132 67.1707 12.448 67.0643 15.1417 67.0643V67.062ZM3.71657 19.7948H79.2851C79.2851 15.8272 79.2851 11.923 79.283 8.02102C79.283 7.88069 79.2551 7.74037 79.2295 7.6023C78.7973 5.26882 77.1113 3.89498 74.6509 3.89498C52.5494 3.89498 30.4501 3.89498 8.34867 3.89498C8.13472 3.89498 7.92076 3.89498 7.70895 3.9063C5.61862 4.00815 3.78289 5.8007 3.73796 8.02328C3.66094 11.923 3.71657 15.8272 3.71657 19.7971V19.7948ZM39.9005 52.4478C39.9005 49.7069 39.894 46.9954 39.9047 44.2862C39.909 43.1206 40.5552 42.3986 41.5329 42.4167C42.4743 42.4326 43.0905 43.141 43.0991 44.2681C43.1119 46.3028 43.1033 48.3398 43.1033 50.3746C43.1033 51.0739 43.1033 51.7755 43.1033 52.5949C43.7024 52.3957 44.3357 52.9095 44.6759 52.02C46.1158 48.2538 47.5921 44.5012 49.047 40.7419C49.4685 39.6532 49.2545 38.7026 48.4501 37.8901C47.774 37.2066 47.0743 36.5457 46.4581 35.8056C44.7701 33.7776 43.1226 31.7135 41.4388 29.6403C41.4302 29.6516 41.334 29.7421 41.2633 29.853C39.3977 32.7704 37.1469 35.3303 34.7335 37.7407C33.6744 38.7977 33.5118 39.5876 34.0659 41.0021C35.4459 44.5216 36.8645 48.023 38.1888 51.5651C38.5312 52.4794 38.9826 52.7442 39.9026 52.4523L39.9005 52.4478ZM46.7791 67.0779V66.245C46.7791 63.3343 46.7791 60.426 46.7791 57.5153C46.7791 56.2501 46.5052 55.9468 45.3327 55.9446C42.7739 55.9378 40.215 55.9378 37.6561 55.9446C36.5157 55.9468 36.2269 56.2547 36.2247 57.4452C36.2205 60.4124 36.2226 63.3773 36.2247 66.3446C36.2247 66.5867 36.2547 66.8266 36.2718 67.0801H46.7769L46.7791 67.0779ZM25.0242 67.0665C25.0242 66.0684 25.0242 65.1676 25.0242 64.2646C25.0242 59.4029 25.0242 54.5391 25.0242 49.6775C25.0242 49.1773 25.0649 48.7065 24.3588 48.7155C22.5723 48.7404 20.7837 48.7042 18.9993 48.7495C18.7789 48.754 18.4109 49.0731 18.381 49.2859C18.2975 49.9128 18.351 50.5601 18.351 51.255C19.1084 51.255 19.746 51.2459 20.3836 51.255C21.494 51.2731 22.2129 51.9272 22.2257 52.9163C22.2407 53.937 21.4983 54.6251 20.3493 54.6432C19.7139 54.6522 19.0785 54.6432 18.4131 54.6432V56.7368C19.1747 56.7368 19.8658 56.7119 20.5569 56.7435C21.5389 56.7865 22.2172 57.4927 22.2257 58.4297C22.2343 59.3962 21.5261 60.1 20.4991 60.1249C19.8145 60.1408 19.1277 60.1272 18.4109 60.1272V62.2593C19.1148 62.2593 19.7503 62.2479 20.3879 62.2615C21.509 62.2864 22.2172 62.936 22.2279 63.9273C22.2407 64.9481 21.5068 65.6248 20.3472 65.6474C19.7139 65.6588 19.0785 65.6474 18.4045 65.6474V67.0575H25.0242V67.0665ZM62.7914 67.062C62.7914 62.6033 62.7871 58.2509 62.7978 53.8985C62.7978 53.378 62.5432 53.301 62.1388 53.3033C60.9107 53.3169 59.6826 53.3463 58.4567 53.292C57.7956 53.2626 57.6522 53.5228 57.6565 54.1724C57.68 58.2441 57.6672 62.3181 57.6715 66.3898C57.6715 66.6071 57.7036 66.8244 57.7228 67.062H62.7914ZM61.3258 49.8721C61.2124 49.2836 61.2659 48.4937 60.9749 48.3059C60.5834 48.0524 59.8046 48.0705 59.4216 48.3398C59.1413 48.5367 59.2312 49.3244 59.152 49.8721H61.3258Z" fill="#FD6F00"/>
<path d="M82.5008 7.32165V63.6784C82.458 63.7802 82.3939 63.8753 82.3725 63.9816C81.5487 68.033 78.7203 70.4728 74.8028 70.4977C73.3885 70.5068 71.9743 70.4977 70.5579 70.4977C49.8194 70.4977 29.0808 70.5 8.34011 70.4977C3.76792 70.4977 0.509398 67.1661 0.505118 62.4471C0.49656 44.4786 0.49656 26.5146 0.522235 8.55063C0.522235 7.63399 0.672003 6.68113 0.943724 5.81202C1.98782 2.47135 4.77564 0.5 8.34439 0.5C30.4437 0.5 52.5451 0.5 74.6444 0.5C74.8584 0.5 75.0724 0.5 75.2842 0.509053C78.2346 0.669749 80.3891 2.16354 81.7178 4.93611C82.0729 5.67848 82.2441 6.52044 82.4987 7.31712L82.5008 7.32165ZM15.1417 67.062C15.1417 63.6919 15.1417 60.4124 15.1417 57.1328C15.1417 54.5594 15.1246 51.9838 15.1481 49.4104C15.1717 46.8958 16.6629 45.3409 19.0164 45.3341C20.7516 45.3296 22.4867 45.3319 24.2198 45.3341C26.7894 45.3364 28.225 46.8574 28.2271 49.5914C28.2314 55.08 28.2271 60.5663 28.2271 66.0548C28.2271 66.383 28.2271 66.7112 28.2271 67.0575H33.0218C33.0218 66.7067 33.0218 66.4034 33.0218 66.1001C33.0218 63.2144 33.0176 60.3286 33.0261 57.4452C33.0261 57.0242 33.0539 56.5964 33.1181 56.1822C33.3385 54.7496 34.1815 53.7673 35.3047 52.9955C33.9333 49.5009 32.5832 46.0607 31.2332 42.6227C29.9987 39.4789 30.4287 37.4125 32.7351 35.0632C35.6107 32.1344 38.3172 29.0586 40.1016 25.2087C40.3819 24.6044 40.8611 24.2807 41.5158 24.2807C42.2026 24.2807 42.6583 24.6315 42.9878 25.254C43.5377 26.286 43.9998 27.4064 44.708 28.3004C46.6421 30.7425 48.6383 33.1371 50.7009 35.4593C52.3975 37.3695 52.9217 39.6374 51.9931 42.0795C51.516 43.3356 51.0154 44.585 50.5276 45.8366C49.5969 48.2335 48.6683 50.6303 47.7269 53.0498C49.4728 54.1498 50.0333 55.7929 49.9927 57.8164C49.9349 60.5867 49.9777 63.3592 49.9777 66.1318V67.0371H54.4643C54.4643 66.6614 54.4643 66.3536 54.4643 66.0435C54.4643 61.9695 54.4215 57.8956 54.4985 53.8239C54.5157 52.9774 54.781 51.9634 55.2816 51.341C55.8892 50.585 56.0198 49.8653 55.9919 48.9758C55.9384 47.1901 56.6766 45.8932 58.1743 45.0535C58.3882 44.9335 58.5958 44.5714 58.6065 44.3134C58.6535 43.184 58.6172 42.0523 58.63 40.9207C58.6428 39.798 59.259 39.0783 60.1919 39.0602C61.1525 39.0421 61.8093 39.7845 61.8265 40.941C61.8436 42.0433 61.8521 43.1478 61.82 44.25C61.8072 44.7095 61.9377 44.9471 62.3442 45.1418C63.3734 45.6352 64.0773 46.4952 64.3126 47.6631C64.4602 48.3987 64.3854 49.1818 64.4538 49.94C64.4795 50.2229 64.5544 50.5783 64.7341 50.7525C65.6734 51.6624 66.0071 52.7827 66.0007 54.0977C65.9793 58.1151 65.9943 62.1302 65.9943 66.1476C65.9943 66.4487 65.9943 66.7474 65.9943 67.1073C68.9533 67.1073 71.8031 67.1118 74.6551 67.1073C77.5628 67.1028 79.2958 65.2763 79.2958 62.2117C79.2979 49.5394 79.2958 36.8671 79.2958 24.1924C79.2958 23.8937 79.2958 23.5972 79.2958 23.3007H3.70587C3.70587 23.6447 3.70587 23.948 3.70587 24.2513C3.70587 36.8671 3.70587 49.4828 3.70587 62.1008C3.70587 62.3837 3.69945 62.6667 3.71871 62.9496C3.8535 64.9956 5.39183 66.924 7.28532 67.0281C9.86132 67.1707 12.448 67.0643 15.1417 67.0643V67.062ZM3.71657 19.7948H79.2851C79.2851 15.8272 79.2851 11.923 79.283 8.02102C79.283 7.88069 79.2551 7.74037 79.2295 7.6023C78.7973 5.26882 77.1113 3.89498 74.6509 3.89498C52.5494 3.89498 30.4501 3.89498 8.34867 3.89498C8.13472 3.89498 7.92076 3.89498 7.70895 3.9063C5.61862 4.00815 3.78289 5.8007 3.73796 8.02328C3.66094 11.923 3.71657 15.8272 3.71657 19.7971V19.7948ZM39.9005 52.4478C39.9005 49.7069 39.894 46.9954 39.9047 44.2862C39.909 43.1206 40.5552 42.3986 41.5329 42.4167C42.4743 42.4326 43.0905 43.141 43.0991 44.2681C43.1119 46.3028 43.1033 48.3398 43.1033 50.3746C43.1033 51.0739 43.1033 51.7755 43.1033 52.5949C43.7024 52.3957 44.3357 52.9095 44.6759 52.02C46.1158 48.2538 47.5921 44.5012 49.047 40.7419C49.4685 39.6532 49.2545 38.7026 48.4501 37.8901C47.774 37.2066 47.0743 36.5457 46.4581 35.8056C44.7701 33.7776 43.1226 31.7135 41.4388 29.6403C41.4302 29.6516 41.334 29.7421 41.2633 29.853C39.3977 32.7704 37.1469 35.3303 34.7335 37.7407C33.6744 38.7977 33.5118 39.5876 34.0659 41.0021C35.4459 44.5216 36.8645 48.023 38.1888 51.5651C38.5312 52.4794 38.9826 52.7442 39.9026 52.4523L39.9005 52.4478ZM46.7791 67.0779V66.245C46.7791 63.3343 46.7791 60.426 46.7791 57.5153C46.7791 56.2501 46.5052 55.9468 45.3327 55.9446C42.7739 55.9378 40.215 55.9378 37.6561 55.9446C36.5157 55.9468 36.2269 56.2547 36.2247 57.4452C36.2205 60.4124 36.2226 63.3773 36.2247 66.3446C36.2247 66.5867 36.2547 66.8266 36.2718 67.0801H46.7769L46.7791 67.0779ZM25.0242 67.0665C25.0242 66.0684 25.0242 65.1676 25.0242 64.2646C25.0242 59.4029 25.0242 54.5391 25.0242 49.6775C25.0242 49.1773 25.0649 48.7065 24.3588 48.7155C22.5723 48.7404 20.7837 48.7042 18.9993 48.7495C18.7789 48.754 18.4109 49.0731 18.381 49.2859C18.2975 49.9128 18.351 50.5601 18.351 51.255C19.1084 51.255 19.746 51.2459 20.3836 51.255C21.494 51.2731 22.2129 51.9272 22.2257 52.9163C22.2407 53.937 21.4983 54.6251 20.3493 54.6432C19.7139 54.6522 19.0785 54.6432 18.4131 54.6432V56.7368C19.1747 56.7368 19.8658 56.7119 20.5569 56.7435C21.5389 56.7865 22.2172 57.4927 22.2257 58.4297C22.2343 59.3962 21.5261 60.1 20.4991 60.1249C19.8145 60.1408 19.1277 60.1272 18.4109 60.1272V62.2593C19.1148 62.2593 19.7503 62.2479 20.3879 62.2615C21.509 62.2864 22.2172 62.936 22.2279 63.9273C22.2407 64.9481 21.5068 65.6248 20.3472 65.6474C19.7139 65.6588 19.0785 65.6474 18.4045 65.6474V67.0575H25.0242V67.0665ZM62.7914 67.062C62.7914 62.6033 62.7871 58.2509 62.7978 53.8985C62.7978 53.378 62.5432 53.301 62.1388 53.3033C60.9107 53.3169 59.6826 53.3463 58.4567 53.292C57.7956 53.2626 57.6522 53.5228 57.6565 54.1724C57.68 58.2441 57.6672 62.3181 57.6715 66.3898C57.6715 66.6071 57.7036 66.8244 57.7228 67.062H62.7914ZM61.3258 49.8721C61.2124 49.2836 61.2659 48.4937 60.9749 48.3059C60.5834 48.0524 59.8046 48.0705 59.4216 48.3398C59.1413 48.5367 59.2312 49.3244 59.152 49.8721H61.3258Z" stroke="#FD6F00" mask="url(#path-1-outside-1_1039_287)"/>
</svg>
