<svg width="33" height="33" viewBox="0 0 33 33" fill="none" xmlns="http://www.w3.org/2000/svg">
<g clip-path="url(#clip0_1039_423)">
<path d="M16.2542 2.92392C20.5927 2.92392 21.1065 2.94295 22.8127 3.01906C24.3984 3.08883 25.2547 3.35523 25.8255 3.57723C26.5803 3.869 27.1258 4.2242 27.6903 4.78871C28.2612 5.35956 28.61 5.8987 28.9018 6.6535C29.1238 7.22435 29.3902 8.08698 29.46 9.66634C29.5361 11.3789 29.5551 11.8927 29.5551 16.2248C29.5551 20.5633 29.5361 21.0771 29.46 22.7833C29.3902 24.369 29.1238 25.2253 28.9018 25.7961C28.61 26.5509 28.2548 27.0964 27.6903 27.6609C27.1195 28.2318 26.5803 28.5806 25.8255 28.8724C25.2547 29.0944 24.3921 29.3608 22.8127 29.4306C21.1001 29.5067 20.5864 29.5257 16.2542 29.5257C11.9157 29.5257 11.402 29.5067 9.69575 29.4306C8.11004 29.3608 7.25376 29.0944 6.68291 28.8724C5.92811 28.5806 5.38263 28.2254 4.81812 27.6609C4.24726 27.0901 3.89841 26.5509 3.60664 25.7961C3.38464 25.2253 3.11824 24.3627 3.04847 22.7833C2.97236 21.0707 2.95333 20.557 2.95333 16.2248C2.95333 11.8863 2.97236 11.3726 3.04847 9.66634C3.11824 8.08063 3.38464 7.22435 3.60664 6.6535C3.89841 5.8987 4.25361 5.35322 4.81812 4.78871C5.38897 4.21785 5.92811 3.869 6.68291 3.57723C7.25376 3.35523 8.11639 3.08883 9.69575 3.01906C11.402 2.94295 11.9157 2.92392 16.2542 2.92392ZM16.2542 -0.00012207C11.846 -0.00012207 11.2941 0.0189064 9.56255 0.0950202C7.8373 0.171134 6.65119 0.450218 5.62366 0.849816C4.55172 1.26844 3.6447 1.82027 2.74401 2.72729C1.83699 3.62797 1.28517 4.535 0.86654 5.60059C0.466942 6.63447 0.187858 7.81423 0.111744 9.53948C0.03563 11.2774 0.0166016 11.8292 0.0166016 16.2375C0.0166016 20.6458 0.03563 21.1976 0.111744 22.9292C0.187858 24.6544 0.466942 25.8405 0.86654 26.8681C1.28517 27.94 1.83699 28.847 2.74401 29.7477C3.6447 30.6484 4.55172 31.2066 5.61731 31.6188C6.65119 32.0184 7.83096 32.2975 9.5562 32.3736C11.2878 32.4498 11.8396 32.4688 16.2479 32.4688C20.6561 32.4688 21.208 32.4498 22.9396 32.3736C24.6648 32.2975 25.8509 32.0184 26.8785 31.6188C27.944 31.2066 28.8511 30.6484 29.7517 29.7477C30.6524 28.847 31.2106 27.94 31.6229 26.8744C32.0225 25.8405 32.3016 24.6608 32.3777 22.9355C32.4538 21.2039 32.4728 20.6521 32.4728 16.2438C32.4728 11.8356 32.4538 11.2838 32.3777 9.55217C32.3016 7.82692 32.0225 6.64081 31.6229 5.61328C31.2233 4.535 30.6715 3.62797 29.7644 2.72729C28.8638 1.82661 27.9567 1.26844 26.8911 0.856159C25.8573 0.456561 24.6775 0.177477 22.9522 0.101363C21.2143 0.0189064 20.6625 -0.00012207 16.2542 -0.00012207Z" fill="white"/>
<path d="M16.2541 7.89667C11.6493 7.89667 7.91333 11.6326 7.91333 16.2375C7.91333 20.8424 11.6493 24.5783 16.2541 24.5783C20.859 24.5783 24.595 20.8424 24.595 16.2375C24.595 11.6326 20.859 7.89667 16.2541 7.89667ZM16.2541 21.6479C13.2667 21.6479 10.8437 19.2249 10.8437 16.2375C10.8437 13.25 13.2667 10.8271 16.2541 10.8271C19.2416 10.8271 21.6646 13.25 21.6646 16.2375C21.6646 19.2249 19.2416 21.6479 16.2541 21.6479Z" fill="white"/>
<path d="M26.872 7.56669C26.872 8.64498 25.9967 9.51394 24.9248 9.51394C23.8465 9.51394 22.9775 8.63863 22.9775 7.56669C22.9775 6.48841 23.8528 5.61945 24.9248 5.61945C25.9967 5.61945 26.872 6.49476 26.872 7.56669Z" fill="white"/>
</g>
<defs>
<clipPath id="clip0_1039_423">
<rect width="32.4752" height="32.4752" fill="white" transform="translate(0.0166016 -0.00012207)"/>
</clipPath>
</defs>
</svg>
