<svg width="72" height="82" viewBox="0 0 72 82" fill="none" xmlns="http://www.w3.org/2000/svg">
<g clip-path="url(#clip0_1039_267)">
<path d="M48.3197 82H23.6799C22.6731 81.3978 22.346 80.7871 22.5748 79.9479C22.7864 79.1791 23.4276 78.8011 24.5371 78.799C25.593 78.799 26.649 78.799 27.7391 78.799C28.2885 75.8094 28.8229 72.9138 29.3765 69.8986C28.9405 69.8986 28.6284 69.8986 28.3163 69.8986C21.9997 69.8986 15.6832 69.9029 9.36667 69.8922C8.62279 69.8922 7.86395 69.873 7.14145 69.7235C2.8321 68.8416 0.0104948 65.3267 0.00621963 60.8444C-0.00446826 49.7467 -0.000193103 38.6489 0.00408205 27.5511C0.00408205 22.0247 3.76408 18.2664 9.28758 18.2578C10.025 18.2578 10.7604 18.2578 11.5513 18.2578C11.5513 17.8371 11.5513 17.5211 11.5513 17.2051C11.5513 13.1499 11.5406 9.09474 11.5555 5.03958C11.5641 2.60307 12.8915 0.834948 15.1638 0.158021C15.2856 0.121719 15.3989 0.0533854 15.5165 0C29.1713 0 42.824 0 56.4789 0C59.681 1.3026 60.4462 2.46 60.4462 6.00052C60.4462 9.78875 60.4462 13.577 60.4462 17.3652C60.4462 17.6449 60.4462 17.9268 60.4462 18.2578C61.3333 18.2578 62.1007 18.2557 62.8702 18.2578C68.1928 18.2813 71.987 22.0674 71.9913 27.391C71.9998 38.5144 71.9977 49.6399 71.9848 60.7633C71.9848 61.5299 71.9207 62.3157 71.7454 63.061C70.7707 67.2251 67.3228 69.8794 62.8724 69.8901C56.4767 69.9071 50.079 69.8943 43.6833 69.8943C43.3712 69.8943 43.0592 69.8943 42.6209 69.8943C43.181 72.9309 43.7197 75.8479 44.2626 78.7947C45.5174 78.7947 46.6888 78.7712 47.858 78.8011C48.9011 78.8268 49.5467 79.5848 49.4612 80.5778C49.3992 81.3188 48.884 81.6733 48.3176 81.9936L48.3197 82ZM14.8004 11.5099V58.3011H57.1864V11.5099H14.8004ZM68.7272 61.6559H3.21472C3.31519 62.0872 3.37077 62.4268 3.47337 62.7556C4.23862 65.2199 6.33986 66.6912 9.13795 66.6933C27.0508 66.6976 44.9637 66.6955 62.8766 66.6933C63.116 66.6933 63.3554 66.6848 63.5949 66.6656C66.3224 66.4648 68.398 64.464 68.7272 61.6559ZM11.4893 58.3246V29.8489H3.24679V58.3246H11.4893ZM68.7421 58.3182V29.8424H60.4911V58.3182H68.7421ZM14.7747 8.17865H57.1864C57.2163 8.04839 57.2377 7.995 57.2377 7.94375C57.242 7.08958 57.2484 6.23755 57.2463 5.38339C57.2441 3.71562 56.7225 3.20312 55.0317 3.20312C42.3473 3.20312 29.663 3.20312 16.9786 3.20312C16.7648 3.20312 16.5511 3.19458 16.3394 3.20953C15.4866 3.27146 14.8431 3.80104 14.7918 4.65307C14.7234 5.81474 14.7747 6.98495 14.7747 8.17865ZM40.9985 78.7627C40.4727 75.9055 39.9682 73.1295 39.4317 70.3598C39.3975 70.1805 39.1068 69.9221 38.9336 69.9199C36.858 69.8901 34.7825 69.9007 32.6406 69.9007C32.0912 72.8711 31.5504 75.7923 30.9989 78.7648H41.0007L40.9985 78.7627ZM11.4914 26.5603V21.5165C6.56858 21.0552 3.29595 23.0817 3.31733 26.5603H11.4914ZM60.4825 26.5539H68.7079C68.584 24.2348 66.8568 22.1037 64.5525 21.6638C63.24 21.414 61.8698 21.4716 60.4847 21.3883V26.5539H60.4825Z" fill="#FD6F00"/>
<path d="M16.7693 38.5015C16.7693 34.314 16.7672 30.1264 16.7693 25.9389C16.7715 23.2632 18.2549 21.7748 20.9141 21.7706C23.2056 21.7663 25.4971 21.762 27.7885 21.7706C30.1484 21.7812 31.7345 23.2867 31.7409 25.6527C31.7666 34.2414 31.7666 42.83 31.7409 51.4187C31.7345 53.7869 30.1655 55.2881 27.7949 55.303C25.4244 55.318 23.0517 55.3222 20.6811 55.303C18.3169 55.2838 16.78 53.7484 16.7736 51.3845C16.7586 47.0902 16.7693 42.7959 16.7693 38.5015ZM28.5559 38.6019C28.5559 34.4165 28.5495 30.2289 28.5623 26.0435C28.5645 25.3517 28.4319 24.9438 27.5962 24.9587C25.3602 24.9993 23.1201 24.9908 20.8842 24.963C20.1788 24.9545 19.9586 25.2385 19.9607 25.9154C19.9736 34.3418 19.9757 42.7681 19.9607 51.1923C19.9607 51.9034 20.245 52.1212 20.9141 52.1148C23.0709 52.0913 25.2299 52.1084 27.3867 52.1063C28.4875 52.1063 28.5538 52.038 28.5559 50.9233C28.5581 46.8169 28.5559 42.7105 28.5559 38.604V38.6019Z" fill="black"/>
<path d="M44.7887 21.7705C46.9199 21.7705 49.0532 21.762 51.1843 21.7727C53.4929 21.7855 55.0619 23.3016 55.0918 25.6143C55.1282 28.307 55.126 31.0019 55.0918 33.6968C55.064 35.9774 53.5613 37.5256 51.272 37.5491C46.9284 37.5961 42.5849 37.5982 38.2413 37.5491C35.8921 37.5235 34.4065 35.9112 34.4001 33.5452C34.3937 30.9571 34.3937 28.3711 34.4001 25.783C34.4065 23.3401 35.9562 21.7812 38.3909 21.7705C40.5221 21.762 42.6554 21.7705 44.7866 21.7705H44.7887ZM37.6 29.3406C38.3033 28.7661 38.8591 28.2814 39.4469 27.8372C40.8855 26.746 42.6853 26.7631 44.1004 27.8757C44.6027 28.2707 45.12 28.6594 45.5625 29.1164C46.1418 29.7143 46.6142 29.6395 47.1828 29.0993C48.4311 27.9077 49.874 27.6878 51.4601 28.3561C51.5755 28.4053 51.6995 28.4309 51.9004 28.4928C51.9004 27.5041 51.9047 26.5731 51.9004 25.6442C51.8961 25.1295 51.5947 24.9672 51.1181 24.9694C46.8835 24.9758 42.649 24.9758 38.4144 24.9694C37.8373 24.9694 37.5936 25.2192 37.6022 25.7894C37.6171 26.9083 37.6064 28.0273 37.6064 29.3406H37.6ZM44.7182 34.3631C46.7937 34.3631 48.8715 34.3823 50.9471 34.3439C51.2549 34.3374 51.8021 34.0855 51.8171 33.9104C51.8684 33.3039 52.2339 32.5907 51.505 32.0953C50.4376 31.3706 49.5712 31.2781 48.9057 31.8177C47.2726 33.148 45.4342 33.148 43.8118 31.8155C43.3587 31.444 42.8948 31.0831 42.478 30.6731C41.9863 30.1905 41.5716 30.1691 41.0415 30.6453C40.1117 31.4803 39.1134 32.2405 38.1772 33.0711C37.9335 33.2868 37.8116 33.6434 37.6342 33.9339C37.972 34.0769 38.3076 34.3396 38.6496 34.346C40.6717 34.3844 42.696 34.3652 44.7182 34.3652V34.3631Z" fill="black"/>
<path d="M44.746 55.3073C42.6404 55.3073 40.5349 55.3159 38.4315 55.3052C35.9327 55.2924 34.4065 53.7527 34.4001 51.2543C34.3958 48.6683 34.3915 46.0802 34.4001 43.4942C34.4086 41.141 35.9455 39.5522 38.2819 39.5415C42.5977 39.5181 46.9156 39.5181 51.2314 39.5415C53.51 39.5544 55.0555 41.0748 55.0875 43.349C55.126 46.0695 55.126 48.79 55.0875 51.5106C55.0533 53.7826 53.5015 55.2838 51.2185 55.3052C49.0596 55.3265 46.9028 55.3095 44.7438 55.3116L44.746 55.3073ZM49.7564 52.1063C50.1882 52.1063 50.5067 52.1063 50.8252 52.1063C51.8213 52.0978 51.9004 52.0231 51.9004 50.9938C51.9047 48.5658 51.8855 46.1357 51.9111 43.7077C51.9197 42.9881 51.6589 42.719 50.9278 42.7233C46.8215 42.7468 42.7153 42.7468 38.6111 42.7233C37.8501 42.719 37.5722 42.9838 37.5851 43.7505C37.6193 45.9649 37.5979 48.1793 37.5979 50.3959C37.5979 52.2067 37.6214 52.2281 39.4341 52.0957C39.5089 52.0893 39.5816 52.0529 39.7355 52.006C39.7975 50.319 39.5089 48.5359 40.8577 47.1159C42.2236 45.6766 43.9615 45.7748 45.6993 45.8197C46.7211 45.8453 47.6146 46.2062 48.3927 46.881C49.9958 48.2754 49.7586 50.1759 49.7564 52.1063ZM46.5522 52.0764C46.5522 51.3184 46.5736 50.6308 46.5458 49.9453C46.5201 49.3388 46.1354 48.963 45.5604 49.0377C44.6904 49.1531 43.4826 48.4548 43.0487 49.7189C42.8093 50.4172 43.006 51.2671 43.006 52.0764H46.5543H46.5522Z" fill="black"/>
<path d="M39.1198 18.828C34.4556 18.828 29.7914 18.8323 25.1272 18.8259C23.9024 18.8259 23.2162 18.2664 23.1799 17.2927C23.15 16.4577 23.6865 15.7915 24.5137 15.6719C24.828 15.627 25.1507 15.6292 25.4714 15.6292C34.5882 15.6292 43.7028 15.6292 52.8195 15.6292C53.138 15.6292 53.463 15.6292 53.775 15.6761C54.5382 15.7936 55.0576 16.3958 55.0854 17.1581C55.1153 17.9653 54.6194 18.6209 53.8285 18.7661C53.4907 18.828 53.1402 18.8259 52.7939 18.8259C48.2366 18.8302 43.6771 18.828 39.1198 18.8259V18.828Z" fill="#FD6F00"/>
<path d="M16.7778 17.2243C16.7778 16.336 17.4533 15.6527 18.3383 15.6441C19.2147 15.6356 19.9329 16.321 19.9585 17.1838C19.9842 18.0678 19.2339 18.8216 18.3383 18.8109C17.464 18.8003 16.7778 18.1041 16.7778 17.2222V17.2243Z" fill="#FD6F00"/>
<path d="M53.0568 4.15131C53.4288 4.15131 53.805 4.12355 54.1748 4.15771C54.9678 4.22818 55.5557 4.84105 55.6177 5.61834C55.6754 6.35292 55.2158 7.12808 54.4634 7.2199C53.4972 7.33522 52.4968 7.34162 51.5306 7.22631C50.7333 7.13021 50.3058 6.37214 50.3785 5.55855C50.4469 4.78126 51.0326 4.2111 51.8577 4.15344C52.2552 4.12568 52.6571 4.14917 53.0568 4.14917V4.15344V4.15131Z" fill="#FD6F00"/>
<path d="M24.2102 35.0699C23.5989 35.0699 22.9875 35.0955 22.3783 35.0635C21.4784 35.0144 20.8136 34.314 20.8179 33.4662C20.8222 32.6184 21.487 31.9095 22.3911 31.8839C23.6374 31.8497 24.8878 31.8476 26.134 31.8839C27.0511 31.9116 27.6859 32.6056 27.6817 33.4769C27.6774 34.346 27.0382 35.0165 26.1212 35.0614C25.4864 35.0934 24.8472 35.0678 24.2102 35.0678V35.0699Z" fill="black"/>
<path d="M24.3149 42.6037C24.8728 42.6037 25.4308 42.5909 25.9887 42.6059C27.0147 42.6358 27.6923 43.2913 27.6816 44.2224C27.6709 45.1193 27.0062 45.777 26.0271 45.7962C24.8322 45.8197 23.6373 45.8218 22.4424 45.7962C21.4933 45.7727 20.8029 45.0595 20.8157 44.184C20.8286 43.3063 21.5211 42.6507 22.483 42.6059C22.5365 42.6037 22.5899 42.6059 22.6434 42.6059C23.2013 42.6059 23.7592 42.6059 24.3171 42.6059L24.3149 42.6037Z" fill="black"/>
<path d="M24.3064 26.5261C24.9199 26.5261 25.5334 26.4984 26.1447 26.5325C27.0468 26.5838 27.6581 27.2159 27.6816 28.0594C27.7052 28.9071 27.1366 29.6204 26.2388 29.6673C24.937 29.7335 23.6267 29.7335 22.3249 29.6759C21.3929 29.6353 20.7751 28.89 20.8179 28.038C20.8585 27.2031 21.4848 26.5987 22.3869 26.5261C22.4403 26.5219 22.4937 26.5197 22.5472 26.5197C23.1329 26.5197 23.7207 26.5197 24.3064 26.5197C24.3064 26.5219 24.3064 26.524 24.3064 26.5261Z" fill="black"/>
<path d="M24.2102 40.4277C23.5967 40.4277 22.9811 40.4662 22.3718 40.4192C21.427 40.3445 20.8007 39.6718 20.8157 38.8155C20.8285 37.9549 21.4783 37.2887 22.4189 37.2631C23.6437 37.2289 24.8728 37.2289 26.0976 37.2631C27.0425 37.2887 27.6752 37.9507 27.6837 38.824C27.6923 39.6718 27.113 40.2975 26.2088 40.4192C26.1297 40.4299 26.0506 40.4427 25.9694 40.4427C25.3837 40.4427 24.7959 40.4427 24.2102 40.4427C24.2102 40.4384 24.2102 40.432 24.2102 40.4277Z" fill="black"/>
<path d="M24.285 47.9849C24.8985 47.9849 25.512 47.9593 26.1233 47.9913C27.0297 48.0404 27.6474 48.6576 27.6795 49.4989C27.7158 50.3766 27.1237 51.092 26.1789 51.1368C24.9028 51.1966 23.6202 51.1966 22.3441 51.1389C21.4057 51.0962 20.7858 50.3723 20.8157 49.5182C20.8457 48.6576 21.4933 48.0298 22.4446 47.9892C23.0559 47.9614 23.6715 47.9849 24.2829 47.9871L24.285 47.9849Z" fill="black"/>
</g>
<defs>
<clipPath id="clip0_1039_267">
<rect width="72" height="82" fill="white"/>
</clipPath>
</defs>
</svg>
