<svg width="49" height="85" viewBox="0 0 49 85" fill="none" xmlns="http://www.w3.org/2000/svg">
<path d="M41.3027 0.5C43.4881 0.50006 45.2997 1.16443 46.5664 2.42969C47.8332 3.69508 48.4988 5.50587 48.5 7.68945V76.8223C48.5 78.9784 47.8288 80.7769 46.5664 82.0371C45.304 83.2973 43.5026 83.9668 41.3428 83.9668H7.65723C5.50019 83.9668 3.69896 83.2956 2.43652 82.0342C1.17426 80.7728 0.50201 78.9735 0.501953 76.8184V43.4092L0.5 43.4111V7.6875C0.5 5.50665 1.1668 3.69613 2.43457 2.43066C3.70223 1.16535 5.5156 0.5 7.7002 0.5H41.3027ZM3.52051 76.7061C3.52051 78.1703 3.91196 79.2129 4.59277 79.8906C5.2739 80.5685 6.32156 80.9579 7.79395 80.958H41.3906C41.6869 80.958 41.9404 80.9645 42.1973 80.9482L42.3672 80.9326C44.1108 80.7319 45.5544 79.3258 45.6123 77.6816C45.6986 75.1816 45.6449 72.6867 45.6377 70.1172H3.52051V76.7061ZM7.12207 3.51758H7.11816C5.40077 3.58209 3.92059 4.71646 3.68457 6.29102C3.58181 6.97834 3.56956 7.68834 3.58594 8.43164C3.59847 9.00037 3.62821 9.61473 3.64062 10.2246C5.41305 10.2258 7.17837 10.232 8.94727 10.2197H8.94824C9.33456 10.2173 9.7616 10.2701 10.1133 10.498C10.4966 10.7466 10.7076 11.1477 10.752 11.6582C10.7937 12.1399 10.6188 12.5662 10.2441 12.8535C9.8959 13.1205 9.4267 13.2283 8.92871 13.2334H3.56836V67.0068H45.5869V13.2334H17.0625C17.0172 13.2334 16.9616 13.2382 16.8867 13.2451C16.8195 13.2513 16.7279 13.2601 16.6416 13.2646C16.4932 13.2725 16.2024 13.281 15.9561 13.1143L15.9541 13.1133C15.7689 12.9867 15.5439 12.8219 15.3496 12.6289C15.1624 12.443 14.9565 12.185 14.8809 11.8652L14.8799 11.8633C14.7776 11.4227 14.9006 11.0208 15.1768 10.7275C15.4369 10.4514 15.8034 10.2991 16.1699 10.2451C16.4923 10.1979 16.8631 10.2246 17.085 10.2246H45.6504V7.68262C45.6504 6.27976 45.2562 5.25542 44.5791 4.58105C43.9017 3.9064 42.8718 3.51367 41.4619 3.51367H7.68848C7.47764 3.51367 7.30252 3.50935 7.12207 3.51758Z" fill="#FD6F00" stroke="#FD6F00"/>
<path d="M24.6103 16.0863C29.6627 16.0863 34.7151 16.0863 39.7676 16.0863C40.9693 16.0863 41.2597 16.3724 41.2597 17.5592C41.2597 26.7495 41.2597 35.9376 41.2597 45.128C41.2597 46.3058 40.9648 46.5919 39.7586 46.5919C29.6537 46.5919 19.5466 46.5919 9.44172 46.5919C8.18593 46.5919 7.90686 46.317 7.90686 45.0766C7.90686 35.9153 7.90686 26.754 7.90686 17.5927C7.90686 16.3567 8.18367 16.0863 9.45072 16.0863C14.5032 16.0863 19.5556 16.0863 24.608 16.0863H24.6103ZM23.0912 31.3402C18.6891 27.3463 14.3861 23.4395 9.99985 19.4612V43.2237C14.4041 39.2253 18.7116 35.3163 23.0912 31.3402ZM39.2139 19.4276C34.7827 23.4484 30.4594 27.3708 26.0844 31.3402C30.4774 35.3252 34.7917 39.241 39.2139 43.2528V19.4254V19.4276ZM11.5662 18.1358C16.0043 22.161 20.287 26.0455 24.5923 29.9523C28.947 25.9986 33.2185 22.1208 37.6048 18.1358H11.5662ZM24.5878 32.7259C20.224 36.6886 15.9547 40.5641 11.5797 44.5379H37.6026C33.2028 40.544 28.9268 36.664 24.5878 32.7259Z" fill="black"/>
<path d="M24.5 57.6574C19.5871 57.6574 14.6742 57.6574 9.76126 57.6574C9.48219 57.6574 9.12211 57.7423 8.93982 57.6038C8.61574 57.3602 8.19714 56.978 8.19714 56.6517C8.19714 56.3276 8.61799 55.9432 8.93982 55.6996C9.12436 55.561 9.48219 55.6481 9.76351 55.6481C19.6456 55.6481 29.5276 55.6481 39.4097 55.6481C39.6348 55.6481 39.8621 55.6325 40.0826 55.6593C40.6677 55.7286 41.0188 56.0773 41.0188 56.6539C41.0188 57.2283 40.6655 57.5792 40.0826 57.6485C39.8328 57.6775 39.5785 57.6597 39.3242 57.6597C34.382 57.6597 29.4421 57.6597 24.5 57.6597V57.6574Z" fill="#FD6F00"/>
<path d="M24.5315 62.6861C19.6186 62.6861 14.7057 62.6861 9.79277 62.6861C9.51146 62.6861 9.15813 62.7755 8.96908 62.6414C8.63825 62.4067 8.1769 62.0134 8.1994 61.7184C8.22416 61.3608 8.65851 60.9897 8.99159 60.7171C9.14462 60.5919 9.47995 60.6791 9.73201 60.6791C19.6433 60.6791 29.5524 60.6791 39.4637 60.6791C39.6888 60.6791 39.9813 60.5986 40.1231 60.7081C40.4652 60.9741 40.9108 61.2937 40.9918 61.6602C41.1111 62.2011 40.697 62.59 40.1141 62.6727C39.8666 62.7085 39.61 62.6883 39.3579 62.6883C34.4158 62.6883 29.4759 62.6883 24.5337 62.6883L24.5315 62.6861Z" fill="#FD6F00"/>
<path d="M16.8347 52.461C14.3951 52.461 11.9578 52.4633 9.51825 52.461C8.62929 52.461 8.14542 52.1057 8.13867 51.4687C8.12967 50.8272 8.61578 50.454 9.49349 50.454C14.3996 50.4495 19.3058 50.4518 24.2119 50.454C25.1301 50.454 25.578 50.787 25.587 51.4441C25.596 52.0923 25.1211 52.4588 24.2367 52.461C21.7701 52.4655 19.3035 52.461 16.8347 52.461Z" fill="#FD6F00"/>
<path d="M24.5878 78.7424C22.5353 78.7602 20.7619 77.0102 20.7551 74.9607C20.7506 72.8889 22.443 71.1724 24.5338 71.1277C26.6245 71.0852 28.4159 72.8509 28.4047 74.9473C28.3957 77.0125 26.6718 78.7245 24.5855 78.7401L24.5878 78.7424ZM26.3882 74.9451C26.3972 73.9975 25.5938 73.1727 24.6373 73.1437C23.6516 73.1146 22.7919 73.9393 22.7829 74.925C22.7739 75.8659 23.5795 76.6973 24.5338 76.7309C25.5037 76.7644 26.3815 75.9218 26.3905 74.9451H26.3882Z" fill="black"/>
</svg>
